<?xml version="1.0" encoding="UTF-8" standalone="no"?>
<!DOCTYPE svg PUBLIC "-//W3C//DTD SVG 1.0//EN" "http://www.w3.org/TR/2001/PR-SVG-20010719/DTD/svg10.dtd">
<svg width="66cm" height="32cm" viewBox="79 361 1317 622" xmlns="http://www.w3.org/2000/svg" xmlns:xlink="http://www.w3.org/1999/xlink">
  <g>
    <rect style="fill: #ffffff" x="218.95" y="362.512" width="348.8" height="28"/>
    <rect style="fill: none; fill-opacity:0; stroke-width: 2; stroke: #000000" x="218.95" y="362.512" width="348.8" height="28"/>
    <text style="fill: #000000;text-anchor:middle;font-size:16;font-family:sanserif;font-style:normal;font-weight:700" x="393.35" y="381.512">TP</text>
    <rect style="fill: #ffffff" x="218.95" y="390.512" width="348.8" height="20"/>
    <rect style="fill: none; fill-opacity:0; stroke-width: 2; stroke: #000000" x="218.95" y="390.512" width="348.8" height="20"/>
    <text style="fill: #000000;text-anchor:start;font-size:12.8;font-family:monospace;font-style:normal;font-weight:normal" x="221.95" y="404.512">-id TP</text>
    <rect style="fill: #ffffff" x="218.95" y="410.512" width="348.8" height="36"/>
    <rect style="fill: none; fill-opacity:0; stroke-width: 2; stroke: #000000" x="218.95" y="410.512" width="348.8" height="36"/>
    <text style="fill: #000000;text-anchor:start;font-size:12.8;font-family:monospace;font-style:normal;font-weight:normal" x="221.95" y="424.512">+produire InformerDemandeInterruptionStage()</text>
    <text style="fill: #000000;text-anchor:start;font-size:12.8;font-family:monospace;font-style:normal;font-weight:normal" x="221.95" y="440.512">+produire DemandeInterruptionTP()</text>
  </g>
  <g>
    <rect style="fill: #ffffff" x="157.95" y="557.512" width="336.2" height="28"/>
    <rect style="fill: none; fill-opacity:0; stroke-width: 2; stroke: #000000" x="157.95" y="557.512" width="336.2" height="28"/>
    <text style="fill: #000000;text-anchor:middle;font-size:16;font-family:sanserif;font-style:normal;font-weight:700" x="326.05" y="576.512">InformerDemandeInterruptionStage</text>
    <rect style="fill: #ffffff" x="157.95" y="585.512" width="336.2" height="20"/>
    <rect style="fill: none; fill-opacity:0; stroke-width: 2; stroke: #000000" x="157.95" y="585.512" width="336.2" height="20"/>
    <text style="fill: #000000;text-anchor:start;font-size:12.8;font-family:monospace;font-style:normal;font-weight:normal" x="160.95" y="599.512">-date</text>
    <rect style="fill: #ffffff" x="157.95" y="605.512" width="336.2" height="36"/>
    <rect style="fill: none; fill-opacity:0; stroke-width: 2; stroke: #000000" x="157.95" y="605.512" width="336.2" height="36"/>
    <text style="fill: #000000;text-anchor:start;font-size:12.8;font-family:monospace;font-style:normal;font-weight:normal" x="160.95" y="619.512">+InformerDemandeInterruptionStage()</text>
    <text style="fill: #000000;text-anchor:start;font-size:12.8;font-family:monospace;font-style:normal;font-weight:normal" x="160.95" y="635.512">+produire DemandeInterruptionTP()</text>
  </g>
  <g>
    <rect style="fill: #ffffff" x="126.95" y="683.512" width="228" height="28"/>
    <rect style="fill: none; fill-opacity:0; stroke-width: 2; stroke: #000000" x="126.95" y="683.512" width="228" height="28"/>
    <text style="fill: #000000;text-anchor:middle;font-size:16;font-family:sanserif;font-style:normal;font-weight:700" x="240.95" y="702.512">DemandeInterruptionTP</text>
    <rect style="fill: #ffffff" x="126.95" y="711.512" width="228" height="20"/>
    <rect style="fill: none; fill-opacity:0; stroke-width: 2; stroke: #000000" x="126.95" y="711.512" width="228" height="20"/>
    <text style="fill: #000000;text-anchor:start;font-size:12.8;font-family:monospace;font-style:normal;font-weight:normal" x="129.95" y="725.512">-date</text>
    <rect style="fill: #ffffff" x="126.95" y="731.512" width="228" height="20"/>
    <rect style="fill: none; fill-opacity:0; stroke-width: 2; stroke: #000000" x="126.95" y="731.512" width="228" height="20"/>
    <text style="fill: #000000;text-anchor:start;font-size:12.8;font-family:monospace;font-style:normal;font-weight:normal" x="129.95" y="745.512">+DemandeInterruptionTP()</text>
  </g>
  <g>
    <rect style="fill: #ffffff" x="449.45" y="734.312" width="110" height="28"/>
    <rect style="fill: none; fill-opacity:0; stroke-width: 2; stroke: #000000" x="449.45" y="734.312" width="110" height="28"/>
    <text style="fill: #000000;text-anchor:middle;font-size:16;font-family:sanserif;font-style:normal;font-weight:700" x="504.45" y="753.312">ReponseTP</text>
    <rect style="fill: #ffffff" x="449.45" y="762.312" width="110" height="8"/>
    <rect style="fill: none; fill-opacity:0; stroke-width: 2; stroke: #000000" x="449.45" y="762.312" width="110" height="8"/>
    <rect style="fill: #ffffff" x="449.45" y="770.312" width="110" height="8"/>
    <rect style="fill: none; fill-opacity:0; stroke-width: 2; stroke: #000000" x="449.45" y="770.312" width="110" height="8"/>
  </g>
  <g>
    <polyline style="fill: none; fill-opacity:0; stroke-width: 2; stroke: #000000" points="324.684,448 324.684,498.512 324.684,498.512 324.684,554 "/>
    <text style="fill: #000000;text-anchor:start;font-size:12.7998;font-family:monospace;font-style:normal;font-weight:normal" x="326.684" y="495.512"></text>
    <text style="fill: #000000;text-anchor:start;font-size:12.7998;font-family:monospace;font-style:normal;font-weight:normal" x="328.684" y="460"> (C)</text>
    <text style="fill: #000000;text-anchor:start;font-size:12.7998;font-family:monospace;font-style:normal;font-weight:normal" x="328.684" y="476">1</text>
    <text style="fill: #000000;text-anchor:start;font-size:12.7998;font-family:monospace;font-style:normal;font-weight:normal" x="328.684" y="550">0..*</text>
  </g>
  <g>
    <rect style="fill: #ffffff" x="641.45" y="702.712" width="250.4" height="28"/>
    <rect style="fill: none; fill-opacity:0; stroke-width: 2; stroke: #000000" x="641.45" y="702.712" width="250.4" height="28"/>
    <text style="fill: #000000;text-anchor:middle;font-size:16;font-family:sanserif;font-style:normal;font-weight:700" x="766.65" y="721.712">AcceptationInterruptionTP</text>
    <rect style="fill: #ffffff" x="641.45" y="730.712" width="250.4" height="20"/>
    <rect style="fill: none; fill-opacity:0; stroke-width: 2; stroke: #000000" x="641.45" y="730.712" width="250.4" height="20"/>
    <text style="fill: #000000;text-anchor:start;font-size:12.8;font-family:monospace;font-style:normal;font-weight:normal" x="644.45" y="744.712">+id AcceptationInterruptionTP</text>
    <rect style="fill: #ffffff" x="641.45" y="750.712" width="250.4" height="20"/>
    <rect style="fill: none; fill-opacity:0; stroke-width: 2; stroke: #000000" x="641.45" y="750.712" width="250.4" height="20"/>
    <text style="fill: #000000;text-anchor:start;font-size:12.8;font-family:monospace;font-style:normal;font-weight:normal" x="644.45" y="764.712">+AcceptationInterruptionTP()</text>
  </g>
  <g>
    <rect style="fill: #ffffff" x="646.45" y="779.712" width="193.7" height="28"/>
    <rect style="fill: none; fill-opacity:0; stroke-width: 2; stroke: #000000" x="646.45" y="779.712" width="193.7" height="28"/>
    <text style="fill: #000000;text-anchor:middle;font-size:16;font-family:sanserif;font-style:normal;font-weight:700" x="743.3" y="798.712">RefusInterruptionTP</text>
    <rect style="fill: #ffffff" x="646.45" y="807.712" width="193.7" height="20"/>
    <rect style="fill: none; fill-opacity:0; stroke-width: 2; stroke: #000000" x="646.45" y="807.712" width="193.7" height="20"/>
    <text style="fill: #000000;text-anchor:start;font-size:12.8;font-family:monospace;font-style:normal;font-weight:normal" x="649.45" y="821.712">-id_RefusInterruptionTP</text>
    <rect style="fill: #ffffff" x="646.45" y="827.712" width="193.7" height="20"/>
    <rect style="fill: none; fill-opacity:0; stroke-width: 2; stroke: #000000" x="646.45" y="827.712" width="193.7" height="20"/>
    <text style="fill: #000000;text-anchor:start;font-size:12.8;font-family:monospace;font-style:normal;font-weight:normal" x="649.45" y="841.712">+RefusInterruptionTP()</text>
  </g>
  <g>
    <rect style="fill: #ffffff" x="477.45" y="881.712" width="294.9" height="28"/>
    <rect style="fill: none; fill-opacity:0; stroke-width: 2; stroke: #000000" x="477.45" y="881.712" width="294.9" height="28"/>
    <text style="fill: #000000;text-anchor:middle;font-size:16;font-family:sanserif;font-style:normal;font-weight:700" x="624.9" y="900.712">RDS</text>
    <rect style="fill: #ffffff" x="477.45" y="909.712" width="294.9" height="20"/>
    <rect style="fill: none; fill-opacity:0; stroke-width: 2; stroke: #000000" x="477.45" y="909.712" width="294.9" height="20"/>
    <text style="fill: #000000;text-anchor:start;font-size:12.8;font-family:monospace;font-style:normal;font-weight:normal" x="480.45" y="923.712">-id RDS</text>
    <rect style="fill: #ffffff" x="477.45" y="929.712" width="294.9" height="52"/>
    <rect style="fill: none; fill-opacity:0; stroke-width: 2; stroke: #000000" x="477.45" y="929.712" width="294.9" height="52"/>
    <text style="fill: #000000;text-anchor:start;font-size:12.8;font-family:monospace;font-style:normal;font-weight:normal" x="480.45" y="943.712">+produire AcceptationInterruptionTP()</text>
    <text style="fill: #000000;text-anchor:start;font-size:12.8;font-family:monospace;font-style:normal;font-weight:normal" x="480.45" y="959.712">+produire RefusInterruptionTP()</text>
    <text style="fill: #000000;text-anchor:start;font-size:12.8;font-family:monospace;font-style:normal;font-weight:normal" x="480.45" y="975.712">+produire DemandeInterruptionRDS()</text>
  </g>
  <g>
    <polyline style="fill: none; fill-opacity:0; stroke-width: 2; stroke: #000000" points="577.686,778.312 588.45,778.312 588.45,793.712 646.45,793.712 "/>
    <polygon style="fill: #ffffff" points="577.686,770.312 561.686,778.312 577.686,786.312 "/>
    <polygon style="fill: none; fill-opacity:0; stroke-width: 2; stroke: #000000" points="577.686,770.312 561.686,778.312 577.686,786.312 "/>
  </g>
  <g>
    <polyline style="fill: none; fill-opacity:0; stroke-width: 2; stroke: #000000" points="500.76,780 500.76,836.712 500.76,836.712 500.76,880 "/>
    <text style="fill: #000000;text-anchor:start;font-size:12.7998;font-family:monospace;font-style:normal;font-weight:normal" x="502.76" y="833.712"></text>
    <text style="fill: #000000;text-anchor:start;font-size:12.7998;font-family:monospace;font-style:normal;font-weight:normal" x="504.76" y="792">0..*</text>
    <text style="fill: #000000;text-anchor:start;font-size:12.7998;font-family:monospace;font-style:normal;font-weight:normal" x="504.76" y="860"> (C)</text>
    <text style="fill: #000000;text-anchor:start;font-size:12.7998;font-family:monospace;font-style:normal;font-weight:normal" x="504.76" y="876">1</text>
  </g>
  <g>
    <rect style="fill: #ffffff" x="793.95" y="443.512" width="341.1" height="28"/>
    <rect style="fill: none; fill-opacity:0; stroke-width: 2; stroke: #000000" x="793.95" y="443.512" width="341.1" height="28"/>
    <text style="fill: #000000;text-anchor:middle;font-size:16;font-family:sanserif;font-style:normal;font-weight:700" x="964.5" y="462.512">Convention de stage validée</text>
    <rect style="fill: #ffffff" x="793.95" y="471.512" width="341.1" height="20"/>
    <rect style="fill: none; fill-opacity:0; stroke-width: 2; stroke: #000000" x="793.95" y="471.512" width="341.1" height="20"/>
    <text style="fill: #000000;text-anchor:start;font-size:12.8;font-family:monospace;font-style:normal;font-weight:normal" x="796.95" y="485.512">-id conv</text>
    <rect style="fill: #ffffff" x="793.95" y="491.512" width="341.1" height="20"/>
    <rect style="fill: none; fill-opacity:0; stroke-width: 2; stroke: #000000" x="793.95" y="491.512" width="341.1" height="20"/>
    <text style="fill: #000000;text-anchor:start;font-size:12.8;font-family:monospace;font-style:normal;font-weight:normal" x="796.95" y="505.512">+traiter InformerDemandeInterruptionStage()</text>
  </g>
  <g>
    <polyline style="fill: none; fill-opacity:0; stroke-width: 2; stroke: #000000" points="358.45,709.912 493.684,709.912 493.684,731 493.684,731 "/>
    <text style="fill: #000000;text-anchor:start;font-size:12.7998;font-family:monospace;font-style:normal;font-weight:normal" x="495.684" y="717.456"></text>
    <text style="fill: #000000;text-anchor:start;font-size:12.7998;font-family:monospace;font-style:normal;font-weight:normal" x="362.45" y="706.912">1</text>
    <text style="fill: #000000;text-anchor:start;font-size:12.7998;font-family:monospace;font-style:normal;font-weight:normal" x="497.684" y="727">1</text>
  </g>
  <g>
    <rect style="fill: #ffffff" x="570.45" y="503.712" width="63.9" height="28"/>
    <rect style="fill: none; fill-opacity:0; stroke-width: 2; stroke: #000000" x="570.45" y="503.712" width="63.9" height="28"/>
    <text style="fill: #000000;text-anchor:middle;font-size:16;font-family:sanserif;font-style:normal;font-weight:700" x="602.4" y="522.712">ST</text>
    <rect style="fill: #ffffff" x="570.45" y="531.712" width="63.9" height="20"/>
    <rect style="fill: none; fill-opacity:0; stroke-width: 2; stroke: #000000" x="570.45" y="531.712" width="63.9" height="20"/>
    <text style="fill: #000000;text-anchor:start;font-size:12.8;font-family:monospace;font-style:normal;font-weight:normal" x="573.45" y="545.712">+id_RDS</text>
    <rect style="fill: #ffffff" x="570.45" y="551.712" width="63.9" height="8"/>
    <rect style="fill: none; fill-opacity:0; stroke-width: 2; stroke: #000000" x="570.45" y="551.712" width="63.9" height="8"/>
  </g>
  <g>
    <polyline style="fill: none; fill-opacity:0; stroke-width: 2; stroke: #000000" points="760.256,698 760.256,630 607.684,630 607.684,562 "/>
    <text style="fill: #000000;text-anchor:middle;font-size:12.7998;font-family:monospace;font-style:normal;font-weight:normal" x="683.97" y="627"></text>
    <text style="fill: #000000;text-anchor:start;font-size:12.7998;font-family:monospace;font-style:normal;font-weight:normal" x="764.256" y="678"> (R)</text>
    <text style="fill: #000000;text-anchor:start;font-size:12.7998;font-family:monospace;font-style:normal;font-weight:normal" x="764.256" y="694">0..1</text>
    <text style="fill: #000000;text-anchor:start;font-size:12.7998;font-family:monospace;font-style:normal;font-weight:normal" x="611.684" y="574">+(B)</text>
    <text style="fill: #000000;text-anchor:start;font-size:12.7998;font-family:monospace;font-style:normal;font-weight:normal" x="611.684" y="590">1</text>
  </g>
  <g>
    <rect style="fill: #ffffff" x="848.45" y="574.712" width="242.45" height="28"/>
    <rect style="fill: none; fill-opacity:0; stroke-width: 2; stroke: #000000" x="848.45" y="574.712" width="242.45" height="28"/>
    <text style="fill: #000000;text-anchor:middle;font-size:16;font-family:sanserif;font-style:normal;font-weight:700" x="969.675" y="593.712">DemandeInterruptionRDS</text>
    <rect style="fill: #ffffff" x="848.45" y="602.712" width="242.45" height="20"/>
    <rect style="fill: none; fill-opacity:0; stroke-width: 2; stroke: #000000" x="848.45" y="602.712" width="242.45" height="20"/>
    <text style="fill: #000000;text-anchor:start;font-size:12.8;font-family:monospace;font-style:normal;font-weight:normal" x="851.45" y="616.712">-date</text>
    <rect style="fill: #ffffff" x="848.45" y="622.712" width="242.45" height="20"/>
    <rect style="fill: none; fill-opacity:0; stroke-width: 2; stroke: #000000" x="848.45" y="622.712" width="242.45" height="20"/>
    <text style="fill: #000000;text-anchor:start;font-size:12.8;font-family:monospace;font-style:normal;font-weight:normal" x="851.45" y="636.712">+DemandeInterruptionRDS()</text>
  </g>
  <g>
    <polyline style="fill: none; fill-opacity:0; stroke-width: 2; stroke-dasharray: 8; stroke: #000000" points="846.256,623 802.354,623 802.354,638.912 765.155,638.912 "/>
    <polyline style="fill: none; fill-opacity:0; stroke-width: 2; stroke: #000000" points="777.803,633.912 761.803,638.912 777.803,643.912 "/>
  </g>
  <g>
    <rect style="fill: #ffffff" x="993.45" y="829.712" width="195.3" height="28"/>
    <rect style="fill: none; fill-opacity:0; stroke-width: 2; stroke: #000000" x="993.45" y="829.712" width="195.3" height="28"/>
    <text style="fill: #000000;text-anchor:middle;font-size:16;font-family:sanserif;font-style:normal;font-weight:700" x="1091.1" y="848.712">RefusInterruptionDE</text>
    <rect style="fill: #ffffff" x="993.45" y="857.712" width="195.3" height="20"/>
    <rect style="fill: none; fill-opacity:0; stroke-width: 2; stroke: #000000" x="993.45" y="857.712" width="195.3" height="20"/>
    <text style="fill: #000000;text-anchor:start;font-size:12.8;font-family:monospace;font-style:normal;font-weight:normal" x="996.45" y="871.712">+id RefusInterruptionDE</text>
    <rect style="fill: #ffffff" x="993.45" y="877.712" width="195.3" height="20"/>
    <rect style="fill: none; fill-opacity:0; stroke-width: 2; stroke: #000000" x="993.45" y="877.712" width="195.3" height="20"/>
    <text style="fill: #000000;text-anchor:start;font-size:12.8;font-family:monospace;font-style:normal;font-weight:normal" x="996.45" y="891.712">+RefusInterruptionDE()</text>
  </g>
  <g>
    <rect style="fill: #ffffff" x="913.45" y="715.712" width="111.6" height="28"/>
    <rect style="fill: none; fill-opacity:0; stroke-width: 2; stroke: #000000" x="913.45" y="715.712" width="111.6" height="28"/>
    <text style="fill: #000000;text-anchor:middle;font-size:16;font-family:sanserif;font-style:normal;font-weight:700" x="969.25" y="734.712">ReponseDE</text>
    <rect style="fill: #ffffff" x="913.45" y="743.712" width="111.6" height="8"/>
    <rect style="fill: none; fill-opacity:0; stroke-width: 2; stroke: #000000" x="913.45" y="743.712" width="111.6" height="8"/>
    <rect style="fill: #ffffff" x="913.45" y="751.712" width="111.6" height="8"/>
    <rect style="fill: none; fill-opacity:0; stroke-width: 2; stroke: #000000" x="913.45" y="751.712" width="111.6" height="8"/>
  </g>
  <g>
    <rect style="fill: #ffffff" x="816.45" y="907.712" width="252" height="28"/>
    <rect style="fill: none; fill-opacity:0; stroke-width: 2; stroke: #000000" x="816.45" y="907.712" width="252" height="28"/>
    <text style="fill: #000000;text-anchor:middle;font-size:16;font-family:sanserif;font-style:normal;font-weight:700" x="942.45" y="926.712">AcceptationInterruptionDE</text>
    <rect style="fill: #ffffff" x="816.45" y="935.712" width="252" height="20"/>
    <rect style="fill: none; fill-opacity:0; stroke-width: 2; stroke: #000000" x="816.45" y="935.712" width="252" height="20"/>
    <text style="fill: #000000;text-anchor:start;font-size:12.8;font-family:monospace;font-style:normal;font-weight:normal" x="819.45" y="949.712">-id AcceptationInterruptionDE</text>
    <rect style="fill: #ffffff" x="816.45" y="955.712" width="252" height="20"/>
    <rect style="fill: none; fill-opacity:0; stroke-width: 2; stroke: #000000" x="816.45" y="955.712" width="252" height="20"/>
    <text style="fill: #000000;text-anchor:start;font-size:12.8;font-family:monospace;font-style:normal;font-weight:normal" x="819.45" y="969.712">+AcceptationInterruptionDE()</text>
  </g>
  <g>
    <polyline style="fill: none; fill-opacity:0; stroke-width: 2; stroke-dasharray: 8; stroke: #000000" points="717.116,522.246 717.116,470.912 464.262,470.912 464.262,546.461 "/>
    <polyline style="fill: none; fill-opacity:0; stroke-width: 2; stroke: #000000" points="459.262,533.813 464.262,549.813 469.262,533.813 "/>
  </g>
  <g>
    <polyline style="fill: none; fill-opacity:0; stroke-width: 2; stroke: #000000" points="969.675,642.712 969.675,679.212 969.25,679.212 969.25,715.712 "/>
    <text style="fill: #000000;text-anchor:middle;font-size:12.7998;font-family:monospace;font-style:normal;font-weight:normal" x="969.462" y="676.212"></text>
    <text style="fill: #000000;text-anchor:start;font-size:12.7998;font-family:monospace;font-style:normal;font-weight:normal" x="973.675" y="654.712">1</text>
    <text style="fill: #000000;text-anchor:start;font-size:12.7998;font-family:monospace;font-style:normal;font-weight:normal" x="973.25" y="711.712">1</text>
  </g>
  <g>
    <polyline style="fill: none; fill-opacity:0; stroke-width: 2; stroke: #000000" points="982.45,779.148 982.45,791.912 1064.45,791.912 1064.45,822.912 "/>
    <polygon style="fill: #ffffff" points="990.45,779.148 982.45,763.148 974.45,779.148 "/>
    <polygon style="fill: none; fill-opacity:0; stroke-width: 2; stroke: #000000" points="990.45,779.148 982.45,763.148 974.45,779.148 "/>
  </g>
  <g>
    <polyline style="fill: none; fill-opacity:0; stroke-width: 2; stroke: #000000" points="941.756,779.484 941.756,833.976 942.45,833.976 942.45,906.703 "/>
    <polygon style="fill: #ffffff" points="949.756,779.484 941.756,763.484 933.756,779.484 "/>
    <polygon style="fill: none; fill-opacity:0; stroke-width: 2; stroke: #000000" points="949.756,779.484 941.756,763.484 933.756,779.484 "/>
  </g>
  <g>
    <rect style="fill: #ffffff" x="1100.35" y="706.912" width="294.9" height="28"/>
    <rect style="fill: none; fill-opacity:0; stroke-width: 2; stroke: #000000" x="1100.35" y="706.912" width="294.9" height="28"/>
    <text style="fill: #000000;text-anchor:middle;font-size:16;font-family:sanserif;font-style:normal;font-weight:700" x="1247.8" y="725.912">DE</text>
    <rect style="fill: #ffffff" x="1100.35" y="734.912" width="294.9" height="20"/>
    <rect style="fill: none; fill-opacity:0; stroke-width: 2; stroke: #000000" x="1100.35" y="734.912" width="294.9" height="20"/>
    <text style="fill: #000000;text-anchor:start;font-size:12.8;font-family:monospace;font-style:normal;font-weight:normal" x="1103.35" y="748.912">-id DE</text>
    <rect style="fill: #ffffff" x="1100.35" y="754.912" width="294.9" height="36"/>
    <rect style="fill: none; fill-opacity:0; stroke-width: 2; stroke: #000000" x="1100.35" y="754.912" width="294.9" height="36"/>
    <text style="fill: #000000;text-anchor:start;font-size:12.8;font-family:monospace;font-style:normal;font-weight:normal" x="1103.35" y="768.912">+produire AcceptationInterruptionDE()</text>
    <text style="fill: #000000;text-anchor:start;font-size:12.8;font-family:monospace;font-style:normal;font-weight:normal" x="1103.35" y="784.912">+produire RefusInterruptionDE()</text>
  </g>
  <g>
    <polyline style="fill: none; fill-opacity:0; stroke-width: 2; stroke: #000000" points="1095.26,733.912 1062.51,733.912 1062.51,729.712 1025.05,729.712 "/>
    <text style="fill: #000000;text-anchor:start;font-size:12.7998;font-family:monospace;font-style:normal;font-weight:normal" x="1064.51" y="728.812"></text>
    <text style="fill: #000000;text-anchor:end;font-size:12.7998;font-family:monospace;font-style:normal;font-weight:normal" x="1091.26" y="730.912">1</text>
    <text style="fill: #000000;text-anchor:start;font-size:12.7998;font-family:monospace;font-style:normal;font-weight:normal" x="1029.05" y="726.712">0..*</text>
  </g>
  <g>
    <polyline style="fill: none; fill-opacity:0; stroke-width: 2; stroke: #000000" points="637.116,526.246 747.784,526.246 747.784,501.512 793.95,501.512 "/>
    <text style="fill: #000000;text-anchor:start;font-size:12.7998;font-family:monospace;font-style:normal;font-weight:normal" x="749.784" y="510.879"></text>
    <text style="fill: #000000;text-anchor:start;font-size:12.7998;font-family:monospace;font-style:normal;font-weight:normal" x="641.116" y="523.246"> (B)</text>
    <text style="fill: #000000;text-anchor:start;font-size:12.7998;font-family:monospace;font-style:normal;font-weight:normal" x="641.116" y="539.246">1</text>
    <text style="fill: #000000;text-anchor:end;font-size:12.7998;font-family:monospace;font-style:normal;font-weight:normal" x="789.95" y="498.512"> (R)</text>
    <text style="fill: #000000;text-anchor:end;font-size:12.7998;font-family:monospace;font-style:normal;font-weight:normal" x="789.95" y="514.512">1</text>
  </g>
  <g>
    <polyline style="fill: none; fill-opacity:0; stroke-width: 2; stroke: #000000" points="494.15,595.512 532.3,595.512 532.3,517.712 570.45,517.712 "/>
    <text style="fill: #000000;text-anchor:start;font-size:12.7998;font-family:monospace;font-style:normal;font-weight:normal" x="534.3" y="553.612"></text>
    <text style="fill: #000000;text-anchor:start;font-size:12.7998;font-family:monospace;font-style:normal;font-weight:normal" x="498.15" y="592.512"> (R)</text>
    <text style="fill: #000000;text-anchor:start;font-size:12.7998;font-family:monospace;font-style:normal;font-weight:normal" x="498.15" y="608.512">1</text>
    <text style="fill: #000000;text-anchor:end;font-size:12.7998;font-family:monospace;font-style:normal;font-weight:normal" x="566.45" y="514.712"> (B)</text>
    <text style="fill: #000000;text-anchor:end;font-size:12.7998;font-family:monospace;font-style:normal;font-weight:normal" x="566.45" y="530.712">1</text>
  </g>
  <g>
    <polyline style="fill: none; fill-opacity:0; stroke-width: 2; stroke: #000000" points="577.686,734.312 600.45,734.312 600.45,740.712 641.45,740.712 "/>
    <polygon style="fill: #ffffff" points="577.686,726.312 561.686,734.312 577.686,742.312 "/>
    <polygon style="fill: none; fill-opacity:0; stroke-width: 2; stroke: #000000" points="577.686,726.312 561.686,734.312 577.686,742.312 "/>
  </g>
  <g>
    <polyline style="fill: none; fill-opacity:0; stroke-width: 2; stroke-dasharray: 8; stroke: #000000" points="532.684,596 532.684,655 342.684,655 342.684,673.295 "/>
    <polyline style="fill: none; fill-opacity:0; stroke-width: 2; stroke: #000000" points="337.684,660.647 342.684,676.647 347.684,660.647 "/>
  </g>
  <g>
    <polyline style="fill: none; fill-opacity:0; stroke-width: 2; stroke: #000000" points="155.684,591 117.684,591 117.684,438 214.684,438 "/>
    <text style="fill: #000000;text-anchor:start;font-size:12.7998;font-family:monospace;font-style:normal;font-weight:normal" x="119.684" y="511.5"></text>
    <text style="fill: #000000;text-anchor:end;font-size:12.7998;font-family:monospace;font-style:normal;font-weight:normal" x="151.684" y="588">0..*</text>
    <text style="fill: #000000;text-anchor:end;font-size:12.7998;font-family:monospace;font-style:normal;font-weight:normal" x="210.684" y="435"> (C)</text>
    <text style="fill: #000000;text-anchor:end;font-size:12.7998;font-family:monospace;font-style:normal;font-weight:normal" x="210.684" y="451">1</text>
  </g>
  <g>
    <polyline style="fill: none; fill-opacity:0; stroke-width: 2; stroke: #000000" points="122.684,731 80.6836,731 80.6836,392 213.684,392 "/>
    <text style="fill: #000000;text-anchor:start;font-size:12.7998;font-family:monospace;font-style:normal;font-weight:normal" x="82.6836" y="558.5"></text>
    <text style="fill: #000000;text-anchor:end;font-size:12.7998;font-family:monospace;font-style:normal;font-weight:normal" x="118.684" y="728">0..*</text>
    <text style="fill: #000000;text-anchor:end;font-size:12.7998;font-family:monospace;font-style:normal;font-weight:normal" x="209.684" y="389"> (C)</text>
    <text style="fill: #000000;text-anchor:end;font-size:12.7998;font-family:monospace;font-style:normal;font-weight:normal" x="209.684" y="405">1</text>
  </g>
</svg>
